HIERARCHY
ROOT Hips
{
    OFFSET 0.000000 0.000000 0.000000
    CHANNELS 6 Xposition Yposition Zposition Zrotation Xrotation Yrotation
    JOINT Spine
    {
        OFFSET -0.000000 7.236184 0.000000
        CHANNELS 3 Zrotation Xrotation Yrotation
        JOINT Spine1
        {
            OFFSET -0.000000 20.420147 0.000000
            CHANNELS 3 Zrotation Xrotation Yrotation
            JOINT Neck
            {
                OFFSET -0.000000 20.336288 1.848754
                CHANNELS 3 Zrotation Xrotation Yrotation
                JOINT Head
                {
                    OFFSET -0.000000 12.354461 -1.764923
                    CHANNELS 3 Zrotation Xrotation Yrotation
                    End Site
                    {
                        OFFSET -0.000000 22.061537 0.000000
                    }
                }
            }
            JOINT LeftShoulder
            {
                OFFSET 3.573296 18.396038 -0.314103
                CHANNELS 3 Zrotation Xrotation Yrotation
                JOINT LeftArm
                {
                    OFFSET 10.880760 0.000000 0.000000
                    CHANNELS 3 Zrotation Xrotation Yrotation
                    JOINT LeftForeArm
                    {
                        OFFSET 27.185530 0.000000 0.000000
                        CHANNELS 3 Zrotation Xrotation Yrotation
                        JOINT LeftHand
                        {
                            OFFSET 27.825975 0.000000 0.000000
                            CHANNELS 3 Zrotation Xrotation Yrotation
                            End Site
                            {
                                OFFSET 13.236923 0.000000 0.000000
                            }
                        }
                    }
                }
            }
            JOINT RightShoulder
            {
                OFFSET -3.474926 18.396038 -0.314103
                CHANNELS 3 Zrotation Xrotation Yrotation
                JOINT RightArm
                {
                    OFFSET -10.880760 0.000000 0.000000
                    CHANNELS 3 Zrotation Xrotation Yrotation
                    JOINT RightForeArm
                    {
                        OFFSET -27.185530 0.000000 0.000000
                        CHANNELS 3 Zrotation Xrotation Yrotation
                        JOINT RightHand
                        {
                            OFFSET -27.825975 0.000000 0.000000
                            CHANNELS 3 Zrotation Xrotation Yrotation
                            End Site
                            {
                                OFFSET -13.236923 0.000000 0.000000
                            }
                        }
                    }
                }
            }
        }
    }
    JOINT LeftUpLeg
    {
        OFFSET 8.824615 0.000000 0.000000
        CHANNELS 3 Zrotation Xrotation Yrotation
        JOINT LeftLeg
        {
            OFFSET -0.000000 -35.111282 0.000000
            CHANNELS 3 Zrotation Xrotation Yrotation
            JOINT LeftFoot
            {
                OFFSET -0.000000 -42.324711 0.000000
                CHANNELS 3 Zrotation Xrotation Yrotation
                JOINT LeftToeBase
                {
                    OFFSET -0.000000 -5.735999 13.236923
                    CHANNELS 3 Zrotation Xrotation Yrotation
                    End Site
                    {
                        OFFSET -0.000000 0.000000 3.529846
                    }
                }
            }
        }
    }
    JOINT RightUpLeg
    {
        OFFSET -8.824615 0.000000 0.000000
        CHANNELS 3 Zrotation Xrotation Yrotation
        JOINT RightLeg
        {
            OFFSET -0.000000 -35.111282 0.000000
            CHANNELS 3 Zrotation Xrotation Yrotation
            JOINT RightFoot
            {
                OFFSET -0.000000 -42.324711 0.000000
                CHANNELS 3 Zrotation Xrotation Yrotation
                JOINT RightToeBase
                {
                    OFFSET -0.000000 -5.735999 13.236923
                    CHANNELS 3 Zrotation Xrotation Yrotation
                    End Site
                    {
                        OFFSET -0.000000 0.000000 3.529846
                    }
                }
            }
        }
    }
}
MOTION
Frames:    9
Frame Time:    0.008333
-5.661777    81.944313    100.628342    -0.626469    -6.702454    -177.456757    -1.808137    -14.224057    0.548509    -0.563996    6.913177    0.808206    3.387465    5.042552    -2.431561    5.343626    4.682582    -2.334617    0.642157    16.963367    -2.568384    -44.880924    48.742928    -38.399696    -1.641955    -6.350259    -15.271794    18.576027    -5.927122    3.946479    6.469866    18.705952    -5.617539    45.672871    46.350906    33.862354    -3.588291    -9.494267    23.029835    -14.391761    -8.079070    -5.545460    1.905017    -6.424274    -1.878966    -1.161642    11.299495    -4.646551    -0.796684    -9.635996    -5.147981    -0.047243    -0.603058    0.052424    -3.041518    -2.182039    2.426959    3.232534    4.524633    5.606145    -1.624437    -6.223416    -13.230113    0.595743    -0.528270    -0.644810    
-5.654846    81.947296    100.637962    -0.619895    -6.756659    -177.445450    -1.817048    -14.184780    0.557328    -0.578104    6.956508    0.818643    3.386207    5.052196    -2.474611    5.455536    4.684132    -2.367630    0.621319    16.944172    -2.570859    -44.816681    48.716637    -38.451591    -1.648513    -6.406264    -15.242857    18.514942    -5.986976    3.939108    6.465031    18.707127    -5.613560    45.660568    46.333046    33.865273    -3.706507    -9.554580    23.408989    -14.364510    -8.099429    -5.585285    1.908618    -6.502508    -1.887767    -1.155271    11.321869    -4.692809    -0.792635    -9.636626    -5.103306    -0.053947    -0.594469    0.059862    -3.035282    -2.232246    2.412931    3.235035    4.504993    5.596516    -1.627802    -6.207551    -13.217340    0.594234    -0.515879    -0.643165
-5.647772    81.950394    100.647774    -0.612973    -6.812459    -177.433533    -1.826349    -14.145522    0.565931    -0.591488    7.000453    0.828814    3.384908    5.063018    -2.517736    5.566564    4.686855    -2.400824    0.599631    16.926270    -2.574080    -44.748806    48.689728    -38.508442    -1.656570    -6.465788    -15.210598    18.445160    -6.050591    3.932943    6.459498    18.707613    -5.610009    45.646717    46.314831    33.867302    -3.826889    -9.614520    23.806995    -14.336017    -8.117414    -5.626390    1.912434    -6.582730    -1.896924    -1.148798    11.344078    -4.741320    -0.788010    -9.636596    -5.056517    -0.060938    -0.585365    0.067619    -3.028987    -2.284237    2.399934    3.238262    4.485517    5.587186    -1.630980    -6.191486    -13.206524    0.592545    -0.503589    -0.641327
-5.640536    81.953613    100.657822    -0.605668    -6.870144    -177.420944    -1.836009    -14.106253    0.574333    -0.604245    7.044952    0.838743    3.383743    5.075218    -2.560913    5.676655    4.691219    -2.434231    0.577205    16.909815    -2.578353    -44.677280    48.662022    -38.570164    -1.666124    -6.528755    -15.174988    18.367264    -6.117917    3.927759    6.453221    18.707117    -5.606712    45.631371    46.296253    33.868198    -3.949200    -9.674225    24.224789    -14.305876    -8.133098    -5.668841    1.916707    -6.664743    -1.906388    -1.142613    11.365098    -4.791004    -0.782874    -9.635309    -5.008728    -0.068078    -0.575426    0.075541    -3.022615    -2.338381    2.387949    3.242200    4.466305    5.578433    -1.633667    -6.175204    -13.197904    0.590793    -0.491613    -0.639419
-5.633111    81.957016    100.668159    -0.597916    -6.929905    -177.407608    -1.846085    -14.066696    0.582476    -0.616220    7.089921    0.848387    3.382755    5.088975    -2.604120    5.785647    4.697522    -2.467854    0.554307    16.894970    -2.584024    -44.603386    48.632950    -38.636372    -1.676693    -6.594764    -15.135386    18.283031    -6.188432    3.923446    6.446139    18.705755    -5.603674    45.613834    46.277790    33.868713    -4.073951    -9.734294    24.663519    -14.273699    -8.146852    -5.712884    1.921626    -6.748273    -1.916033    -1.136857    11.384167    -4.840575    -0.777464    -9.632454    -4.961424    -0.075024    -0.564975    0.083247    -3.016003    -2.394989    2.376808    3.246688    4.447555    5.570024    -1.635285    -6.158812    -13.191074    0.589038    -0.479944    -0.637510
-5.625559    81.960556    100.678703    -0.589730    -6.991253    -177.393692    -1.856422    -14.027102    0.590144    -0.627260    7.134737    0.857728    3.381767    5.104299    -2.646861    5.892615    4.706141    -2.501304    0.531331    16.881819    -2.592014    -44.529598    48.601749    -38.704624    -1.687912    -6.662292    -15.092215    18.196091    -6.260436    3.920012    6.438537    18.703493    -5.600685    45.593739    46.259708    33.869118    -4.199850    -9.794312    25.118534    -14.239338    -8.158647    -5.758070    1.927311    -6.832374    -1.925571    -1.131697    11.400798    -4.888707    -0.772064    -9.627923    -4.916141    -0.081459    -0.553923    0.090385    -3.009230    -2.453635    2.366823    3.251846    4.429481    5.562399    -1.635473    -6.142434    -13.186587    0.587424    -0.468888    -0.635754
-5.617885    81.964256    100.689491    -0.581125    -7.054294    -177.379120    -1.866978    -13.987559    0.597471    -0.637453    7.179258    0.866587    3.381028    5.121460    -2.689044    5.997134    4.717513    -2.534541    0.508632    16.870756    -2.602567    -44.456829    48.567902    -38.774544    -1.699154    -6.730413    -15.045274    18.110615    -6.332705    3.917842    6.430387    18.700573    -5.597617    45.570564    46.242485    33.870167    -4.327048    -9.854613    25.589231    -14.202526    -8.168720    -5.804709    1.933835    -6.916820    -1.934785    -1.127236    11.414561    -4.934308    -0.766853    -9.621596    -4.874159    -0.087251    -0.542024    0.096809    -3.002203    -2.514555    2.357595    3.257374    4.412232    5.555407    -1.633518    -6.126103    -13.183791    0.586121    -0.458849    -0.634334
-5.610042    81.968178    100.700592    -0.571991    -7.119377    -177.363892    -1.877635    -13.947676    0.604426    -0.646978    7.223599    0.874996    3.380422    5.140943    -2.730779    6.099841    4.731748    -2.567599    0.486278    16.861431    -2.616297    -44.386848    48.530094    -38.844547    -1.710317    -6.798226    -14.994150    18.030972    -6.404133    3.917276    6.421859    18.696781    -5.594035    45.543861    46.226208    33.872116    -4.456236    -9.915690    26.077358    -14.162951    -8.177272    -5.853115    1.941422    -7.002042    -1.944058    -1.123710    11.425556    -4.976597    -0.761913    -9.613464    -4.835903    -0.092240    -0.529506    0.102342    -2.994779    -2.578123    2.349032    3.263238    4.395841    5.549254    -1.629145    -6.109770    -13.182764    0.585242    -0.450155    -0.633376
-5.602041    81.972313    100.712029    -0.562338    -7.186469    -177.348053    -1.888246    -13.907297    0.610987    -0.656052    7.267306    0.882975    3.380342    5.162562    -2.771885    6.199978    4.749895    -2.600497    0.464795    16.854349    -2.633276    -44.320377    48.487972    -38.914585    -1.720724    -6.864955    -14.938729    17.962038    -6.473520    3.919263    6.413138    18.692070    -5.589818    45.513210    46.211479    33.875385    -4.587323    -9.977706    26.581625    -14.120446    -8.184402    -5.903419    1.949914    -7.088130    -1.952628    -1.120786    11.434029    -5.015589    -0.757530    -9.603628    -4.802153    -0.096544    -0.515782    0.107115    -2.986917    -2.644455    2.341104    3.269310    4.380458    5.543750    -1.621493    -6.093480    -13.183125    0.584908    -0.443204    -0.633008
